<svg xmlns="http://www.w3.org/2000/svg" xmlns:xlink="http://www.w3.org/1999/xlink" viewBox="0 0 229.26 369.96"><defs><style>.cls-1{stroke:#ffbc00;stroke-width:2px;fill:url(#linear-gradient);}.cls-2{fill:#d9ffe5;stroke:#bdb8ff;}.cls-3,.cls-4,.cls-5,.cls-6{stroke:#397bbf;stroke-width:6px;}.cls-3{fill:url(#linear-gradient-2);}.cls-4{fill:url(#linear-gradient-3);}.cls-5{fill:#39daff;}.cls-6{fill:#5ff4ff;}.cls-7,.cls-9{stroke:#910249;}.cls-7{fill:url(#linear-gradient-4);}.cls-8{stroke:#087a15;stroke-width:0.5px;fill:url(#linear-gradient-5);}.cls-9{fill:url(#linear-gradient-6);}</style><linearGradient id="linear-gradient" x1="278.45" y1="368.96" x2="278.45" y2="235" gradientTransform="matrix(-2.26, 0, 0, 1, 745.15, 0)" gradientUnits="userSpaceOnUse"><stop offset="0.58" stop-color="#ffe594"/><stop offset="1" stop-color="#e0b853"/></linearGradient><linearGradient id="linear-gradient-2" x1="229.33" y1="153.88" x2="328.01" y2="153.88" gradientTransform="matrix(-2.26, 0, 0, 1, 745.15, 0)" gradientUnits="userSpaceOnUse"><stop offset="0.38" stop-color="#39daff"/><stop offset="1" stop-color="#5f6fff"/></linearGradient><linearGradient id="linear-gradient-3" x1="231.01" y1="187.69" x2="311.69" y2="187.69" gradientTransform="matrix(-2.26, 0, 0, 1, 745.15, 0)" gradientUnits="userSpaceOnUse"><stop offset="0.52" stop-color="#39daff"/><stop offset="0.73" stop-color="#49acff"/><stop offset="1" stop-color="#5f6fff"/></linearGradient><linearGradient id="linear-gradient-4" x1="254.74" y1="51.53" x2="257.41" y2="53.61" gradientTransform="matrix(-2.26, 0, 0, 1, 745.15, 0)" gradientUnits="userSpaceOnUse"><stop offset="0.4" stop-color="#c10c52"/><stop offset="0.88" stop-color="#840f3c"/></linearGradient><linearGradient id="linear-gradient-5" x1="248.51" y1="29.62" x2="257.97" y2="29.62" gradientTransform="matrix(-2.26, 0, 0, 1, 745.15, 0)" gradientUnits="userSpaceOnUse"><stop offset="0.4" stop-color="#08bf26"/><stop offset="0.88" stop-color="#087a15"/></linearGradient><linearGradient id="linear-gradient-6" x1="246.7" y1="74.44" x2="281.53" y2="74.44" gradientTransform="matrix(-2.26, 0, 0, 1, 745.15, 0)" gradientUnits="userSpaceOnUse"><stop offset="0.4" stop-color="#cc2368"/><stop offset="0.88" stop-color="#840f3c"/></linearGradient></defs><title>Asset 3</title><g id="Layer_2" data-name="Layer 2"><g id="Layer_10" data-name="Layer 10"><path class="cls-1" d="M222.48,238.91a32.11,32.11,0,0,1-14.41,10.43c-7.87,3.78-15.4,3-20,5.46a397.49,397.49,0,0,1-77.15,8c-20.54-1.69-42.81-3.68-56.25-7.65C48,254.14,25,244.77,25,244.77L7.81,235l31.4,120s12.29,6.27,23.22,8.19S91.74,369,112.29,369s32.81-.8,43.77-3.35,37.87-11.16,37.87-11.16Z"/><path class="cls-2" d="M177.26,272.09c-.22-1.25-9.57-6.41-10.28,3.35.79,4.12,5.14,7.82,5.14,7.82l5.14,3.9a37.27,37.27,0,0,0,6.63-4.88c2.12-2,3.86-2.93,4.21-6.28C186.61,265.61,177.33,271.33,177.26,272.09Z"/><path class="cls-2" d="M135,277.44c-.22-1.25-9.57-6.42-10.28,3.35.79,4.12,5.14,7.82,5.14,7.82l5.14,3.9a37.27,37.27,0,0,0,6.63-4.88c2.12-2,3.86-2.93,4.22-6.28C144.36,271,135.08,276.68,135,277.44Z"/><path class="cls-2" d="M94.57,278.93c-.22-1.25-9.57-6.42-10.28,3.35.78,4.12,5.14,7.81,5.14,7.81L94.57,294a37.27,37.27,0,0,0,6.63-4.88c2.12-2,3.86-2.93,4.21-6.28C103.92,272.44,94.64,278.16,94.57,278.93Z"/><path class="cls-2" d="M54.41,272.09c-.21-1.25-9.56-6.41-10.28,3.35.79,4.12,5.14,7.82,5.14,7.82l5.14,3.9a37.55,37.55,0,0,0,6.64-4.88c2.11-2,3.85-2.93,4.21-6.28C63.76,265.61,54.48,271.33,54.41,272.09Z"/><path class="cls-2" d="M157.85,300.14c-.22-1.25-9.57-6.42-10.28,3.35.78,4.12,5.14,7.81,5.14,7.81l5.14,3.91a37.27,37.27,0,0,0,6.63-4.88c2.12-2,3.86-2.93,4.21-6.28C167.19,293.65,157.92,299.37,157.85,300.14Z"/><path class="cls-2" d="M112.17,306.47c-.21-1.26-9.56-6.42-10.28,3.35.79,4.11,5.14,7.81,5.14,7.81l5.14,3.91a37.89,37.89,0,0,0,6.64-4.89c2.11-2,3.85-2.93,4.21-6.28C121.52,300,112.24,305.7,112.17,306.47Z"/><path class="cls-2" d="M70.3,300.14c-.21-1.25-9.56-6.42-10.28,3.35.79,4.12,5.14,7.81,5.14,7.81l5.14,3.91a37.55,37.55,0,0,0,6.64-4.88c2.11-2,3.85-2.93,4.21-6.28C79.65,293.65,70.37,299.37,70.3,300.14Z"/><path class="cls-2" d="M168.41,328.19c-.22-1.26-9.57-6.42-10.28,3.35.79,4.11,5.14,7.81,5.14,7.81l5.14,3.91a37.61,37.61,0,0,0,6.63-4.89c2.12-2,3.86-2.93,4.22-6.28C177.76,321.7,168.48,327.42,168.41,328.19Z"/><path class="cls-2" d="M130.82,336c-.21-1.26-9.56-6.42-10.28,3.34.79,4.12,5.14,7.82,5.14,7.82l5.14,3.91a37.89,37.89,0,0,0,6.64-4.89c2.11-2,3.85-2.93,4.21-6.28C140.17,329.48,130.89,335.2,130.82,336Z"/><path class="cls-2" d="M93.54,334c-.21-1.25-9.56-6.42-10.27,3.35.78,4.12,5.14,7.81,5.14,7.81l5.13,3.91a37.55,37.55,0,0,0,6.64-4.88c2.12-2,3.85-2.93,4.21-6.28C102.89,327.51,93.61,333.23,93.54,334Z"/><path class="cls-2" d="M58.48,327.19c-.22-1.26-9.56-6.42-10.28,3.35.79,4.11,5.14,7.81,5.14,7.81l5.14,3.91a37.89,37.89,0,0,0,6.64-4.89c2.11-2,3.85-2.93,4.21-6.28C67.83,320.7,58.55,326.42,58.48,327.19Z"/><path class="cls-3" d="M215.09,250a31.88,31.88,0,0,0,9.82-12.1s3.05-7.07,0-19.35a37.33,37.33,0,0,0-7.61-17.86l-6.09-6.7,3-7.81s.67-6.14-.76-10.79a35.36,35.36,0,0,0-5-9.3s-1.14-3.26-5.32-7.82a25.74,25.74,0,0,0-7.62-6s-2.95-1.58-6-2.79-5.62-.56-9.14-.93-4.28-1.77-4.28-1.77a65,65,0,0,0,1.62-8.93,25.88,25.88,0,0,0-1.62-11.54c-1.33-3.62-5.71-8.55-5.71-8.55a29.49,29.49,0,0,0-5.33-6c-3.23-2.7-11.13-8.28-17.89-10.79-4.18-2.42-7.8-2.88-9.89-3.72s-5-2.05-5.71-4.46c-.48-9.31,3-12.67,4.18-16a31.69,31.69,0,0,0,.77-9.68l-2.29-9.3A21.69,21.69,0,0,0,127.47,50c-4.47-2.88-12.56-4.83-12.56-4.83s-6.9-1.68-11-2.24-13-2-13-2,3.68,5.58,6.57,9.63,9.47,8.46,9.09,13.16-3,6.7-3,6.7L91.31,76.8,78,82.75S71.61,86,68,89.63A63.09,63.09,0,0,0,61.24,98l-4.57,9.31s-1.9,5.3-1.9,8.55v5.21a46.48,46.48,0,0,0-7.23,2.24,33.82,33.82,0,0,0-9.13,5.86,72.9,72.9,0,0,0-4.95,7.53c-1.62,3.07-1.62,5.68-1.91,8.19s1.24,10,2.38,12.46,6,6.14,6,6.14l-8.38,6.7s-6,4.84-10.27,8.56-7.14,8.18-9.71,11.81S5.2,205.91,5.2,205.91,3,214.84,3,219.31s-.19,12.09,1.42,15.35,4.48,6.13,8.76,8.74S40.31,255,40.31,255s17.51,5,22.46,6.32,21.31,3,21.31,3,14.56,1.77,20.55,2.23,18.27,0,18.27,0,12.66.21,19.6,0c5.33.21,17.7-2.21,17.7-2.21l19.42-3.72,17.51-3.72S207.29,254.47,215.09,250Z"/><path class="cls-4" d="M39.93,163.49c38.95,19.18,79.78,31.46,146.29,28.95,18-.69,35.49,9.16,36.26,19.44"/><path class="cls-5" d="M54.77,121.07c53.52,2.71,55.94,21.13,124.18,26.82"/><path class="cls-6" d="M112.14,79.69c-9.28,12.28-3,12.84,22.36,16.22"/><path class="cls-7" d="M173.83,56.54l-12.59-9.16a5.41,5.41,0,0,0,1,4.44c.71,1.57,2.35,3.52,4.35,3.94C169.61,57,173.83,56.54,173.83,56.54Z"/><path class="cls-8" d="M161.47,53.87,166.18,46l4.58-10.53a93.45,93.45,0,0,0,2.78-10.06l1.82-12.78a4.12,4.12,0,0,1-1-3.47c.41-2,1.25-2.22,1.25-2.22a20.6,20.6,0,0,1,.46-4.4A4.13,4.13,0,0,1,179.34.26a4.3,4.3,0,0,1,3.24,2.4c.38,1.21-.51,4.65-.51,4.65s1,.53.77,2.69a4.36,4.36,0,0,1-2.18,3.18s-.65,8.46-1,11.4c-1.24,5.64-3.14,12.5-3.14,12.5l-3.87,9.55-4.3,7.93L165.65,59Z"/><path class="cls-9" d="M173.83,56.54a17.35,17.35,0,0,1,8.57,7.61C185.54,69.87,187,78.1,187,78.1s.12,10.53-2.14,14.09-8.1,10.47-11,12.74c-8.68,6.84-5.4,4.72-13.22,0a141.61,141.61,0,0,0-15.36-8.25C140.62,94.94,128,92.39,128,92.39l-16.28-2.56s-3.54-5.31-3.54-14A35,35,0,0,1,111.6,60.8s5.85-10.47,8-12.84,12-7.26,12-7.26,10.56-1.81,16-.83c7.56,1,14.36,6.24,13.9,8.71s1.08,3.71,2.8,5.38S173.83,56.54,173.83,56.54Z"/></g></g></svg>