<svg xmlns="http://www.w3.org/2000/svg" viewBox="0 0 233.26 342.68"><defs><style>.cls-1,.cls-2,.cls-3{fill:none;}.cls-1,.cls-2{stroke:#8f8fff;}.cls-1,.cls-3{stroke-width:10px;}.cls-2{stroke-width:4px;}.cls-3{stroke:#66d;}</style></defs><title>Asset 5</title><g id="Layer_2" data-name="Layer 2"><g id="Layer_10_copy" data-name="Layer 10 copy"><path class="cls-1" d="M224.48,207.63a32.11,32.11,0,0,1-14.41,10.43c-7.87,3.79-15.4,3.05-20,5.47a398.61,398.61,0,0,1-77.15,8c-20.54-1.69-42.81-3.68-56.25-7.65C50,222.87,27,213.49,27,213.49L9.81,203.73l31.4,120S53.5,330,64.43,331.91s29.31,5.77,49.86,5.77,32.81-.8,43.77-3.35,37.87-11.16,37.87-11.16Z"/><path class="cls-2" d="M179.26,240.82c-.22-1.26-9.57-6.42-10.28,3.35.79,4.11,5.14,7.81,5.14,7.81l5.14,3.91a37.61,37.61,0,0,0,6.63-4.89c2.12-2,3.86-2.93,4.21-6.28C188.61,234.33,179.33,240.05,179.26,240.82Z"/><path class="cls-2" d="M137,246.17c-.22-1.26-9.57-6.42-10.28,3.34.79,4.12,5.14,7.82,5.14,7.82l5.14,3.91a37.61,37.61,0,0,0,6.63-4.89c2.12-2,3.86-2.93,4.22-6.28C146.36,239.68,137.08,245.4,137,246.17Z"/><path class="cls-2" d="M96.57,247.65c-.22-1.25-9.57-6.41-10.28,3.35.78,4.12,5.14,7.82,5.14,7.82l5.14,3.9a37.27,37.27,0,0,0,6.63-4.88c2.12-2,3.86-2.93,4.21-6.28C105.92,241.17,96.64,246.89,96.57,247.65Z"/><path class="cls-2" d="M56.41,240.82c-.21-1.26-9.56-6.42-10.28,3.35.79,4.11,5.14,7.81,5.14,7.81l5.14,3.91A37.89,37.89,0,0,0,63.05,251c2.11-2,3.85-2.93,4.21-6.28C65.76,234.33,56.48,240.05,56.41,240.82Z"/><path class="cls-2" d="M159.85,269.86c-.22-1.25-9.57-6.42-10.28,3.35.78,4.12,5.14,7.82,5.14,7.82l5.14,3.9a37.27,37.27,0,0,0,6.63-4.88c2.12-2,3.86-2.93,4.21-6.28C169.19,263.37,159.92,269.1,159.85,269.86Z"/><path class="cls-2" d="M114.17,276.19c-.21-1.26-9.56-6.42-10.28,3.35.79,4.11,5.14,7.81,5.14,7.81l5.14,3.91a37.89,37.89,0,0,0,6.64-4.89c2.11-2,3.85-2.93,4.21-6.27C123.52,269.7,114.24,275.42,114.17,276.19Z"/><path class="cls-2" d="M72.3,269.86c-.21-1.25-9.56-6.42-10.28,3.35.79,4.12,5.14,7.82,5.14,7.82l5.14,3.9a37.55,37.55,0,0,0,6.64-4.88c2.11-2,3.85-2.93,4.21-6.28C81.65,263.37,72.37,269.1,72.3,269.86Z"/><path class="cls-2" d="M170.41,299.91c-.22-1.26-9.57-6.42-10.28,3.35.79,4.11,5.14,7.81,5.14,7.81l5.14,3.91A37.86,37.86,0,0,0,177,310.1c2.12-2,3.86-2.93,4.22-6.28C179.76,293.42,170.48,299.14,170.41,299.91Z"/><path class="cls-2" d="M134.82,306.69c-.21-1.26-9.56-6.42-10.28,3.35.79,4.11,5.14,7.81,5.14,7.81l5.14,3.91a37.89,37.89,0,0,0,6.64-4.89c2.11-2,3.85-2.93,4.21-6.28C144.17,300.2,134.89,305.92,134.82,306.69Z"/><path class="cls-2" d="M95.54,305.72c-.21-1.25-9.56-6.42-10.27,3.35.78,4.12,5.14,7.82,5.14,7.82l5.13,3.9a37.55,37.55,0,0,0,6.64-4.88c2.12-2,3.85-2.93,4.21-6.28C104.89,299.24,95.61,305,95.54,305.72Z"/><path class="cls-2" d="M58.48,300.91c-.22-1.26-9.56-6.42-10.28,3.35.79,4.11,5.14,7.81,5.14,7.81L58.48,316a38.15,38.15,0,0,0,6.64-4.88c2.11-2,3.85-2.93,4.21-6.28C67.83,294.42,58.55,300.14,58.48,300.91Z"/><path class="cls-3" d="M217.09,215.73a31.88,31.88,0,0,0,9.82-12.1s3.05-7.07,0-19.35a37.4,37.4,0,0,0-7.61-17.86l-6.09-6.69,3-7.82s.67-6.14-.76-10.79a35.36,35.36,0,0,0-5-9.3s-1.14-3.26-5.32-7.81A25.69,25.69,0,0,0,197.6,118s-2.95-1.58-6-2.79-5.62-.56-9.14-.93-4.28-1.77-4.28-1.77a64.7,64.7,0,0,0,1.62-8.93A25.81,25.81,0,0,0,178.19,92c-1.33-3.63-5.71-8.56-5.71-8.56a29.49,29.49,0,0,0-5.33-6C163.92,74.8,156,69.21,149.26,66.7c-4.18-2.42-7.8-2.88-9.89-3.72s-5-2-5.71-4.46c-.48-9.31,3-12.67,4.18-16a31.69,31.69,0,0,0,.77-9.68l-2.29-9.3a21.62,21.62,0,0,0-6.85-7.81c-4.47-2.89-12.56-4.84-12.56-4.84s-6.9-1.68-11-2.23-13-2-13-2,3.68,5.58,6.57,9.63,9.47,8.47,9.09,13.16-3,6.7-3,6.7L93.31,42.52,80,48.47s-6.38,3.26-10,6.88a62.85,62.85,0,0,0-6.76,8.38L58.67,73s-1.9,5.3-1.9,8.56V86.8A45.53,45.53,0,0,0,49.54,89a34.08,34.08,0,0,0-9.13,5.86,72.9,72.9,0,0,0-4.95,7.53c-1.62,3.07-1.62,5.68-1.91,8.19s1.24,10,2.38,12.47,6,6.13,6,6.13l-8.38,6.7s-6,4.84-10.27,8.56-7.14,8.19-9.71,11.81S7.2,171.63,7.2,171.63,5,180.56,5,185s-.19,12.09,1.42,15.35,4.48,6.14,8.76,8.74,27.12,11.63,27.12,11.63,17.51,5,22.46,6.32,21.31,3,21.31,3,14.56,1.77,20.55,2.23,18.27,0,18.27,0,12.66.21,19.6,0c5.33.21,17.7-2.21,17.7-2.21l19.42-3.72,17.51-3.72S209.29,220.2,217.09,215.73Z"/><path class="cls-3" d="M41.93,129.21c38.95,19.18,79.78,31.46,146.29,28.95,18-.68,35.49,9.17,36.26,19.44"/><path class="cls-3" d="M56.77,86.8c53.52,2.71,55.94,21.12,124.18,26.81"/><path class="cls-3" d="M100.45,38.84c-9.27,12.28,7.25,17.4,32.61,20.79"/><path class="cls-2" d="M30.45,272.81c-.21-1.25-6.92-12.63-3.62.38.78,4.11,3.41,12.61,3.41,12.61a39.35,39.35,0,0,0,7.48-5.2c2.11-2,3.85-2.93,4.21-6.28C40.43,263.92,30.52,272.05,30.45,272.81Z"/><path class="cls-2" d="M17.68,234.72c-.22-1.26,3.89,14,3.89,14s-.16-1,2.74-3.78c2.12-2,3.86-2.93,4.21-6.28C27,228.23,17.75,234,17.68,234.72Z"/><path class="cls-2" d="M217.42,237.39c-.22-1.26-9.57-6.42-10.28,3.35.78,4.11,5.14,7.81,5.14,7.81l1.63,1.87S217.49,236.62,217.42,237.39Z"/><path class="cls-2" d="M196.29,269.86c-.21-1.25-9.56-6.42-10.27,3.35.78,4.12,5.13,7.82,5.13,7.82l5.14,3.9a37.55,37.55,0,0,0,6.64-4.88c2.11-2,3.85-2.93,4.21-6.28C205.64,263.37,196.36,269.1,196.29,269.86Z"/></g></g></svg>