<svg xmlns="http://www.w3.org/2000/svg" viewBox="0 0 228.26 336.83"><defs><style>.cls-1,.cls-2,.cls-3{fill:none;}.cls-1,.cls-2{stroke:#8f8fff;}.cls-1,.cls-3{stroke-width:5px;}.cls-2{stroke-width:2px;}.cls-3{stroke:#66d;}</style></defs><title>Asset 4</title><g id="Layer_2" data-name="Layer 2"><g id="Layer_10_copy" data-name="Layer 10 copy"><path class="cls-1" d="M222,204.28a32.11,32.11,0,0,1-14.41,10.43c-7.87,3.78-15.4,3-20,5.47a398.61,398.61,0,0,1-77.15,8c-20.54-1.69-42.81-3.68-56.25-7.65-6.71-1-29.75-10.35-29.75-10.35L7.31,200.37l31.4,120s12.29,6.27,23.22,8.19,29.31,5.77,49.86,5.77,32.81-.8,43.77-3.35,37.87-11.16,37.87-11.16Z"/><path class="cls-2" d="M176.76,237.47c-.22-1.26-9.57-6.42-10.28,3.34.79,4.12,5.14,7.82,5.14,7.82l5.14,3.9a37.27,37.27,0,0,0,6.63-4.88c2.12-2,3.86-2.93,4.21-6.28C186.11,231,176.83,236.7,176.76,237.47Z"/><path class="cls-2" d="M134.51,242.81c-.22-1.25-9.57-6.41-10.28,3.35.79,4.12,5.14,7.82,5.14,7.82l5.14,3.9a37.27,37.27,0,0,0,6.63-4.88c2.12-2,3.86-2.93,4.22-6.28C143.86,236.33,134.58,242.05,134.51,242.81Z"/><path class="cls-2" d="M94.07,244.3c-.22-1.25-9.57-6.42-10.28,3.35.78,4.12,5.14,7.81,5.14,7.81l5.14,3.91a37.27,37.27,0,0,0,6.63-4.88c2.12-2,3.86-2.93,4.21-6.28C103.42,237.81,94.14,243.53,94.07,244.3Z"/><path class="cls-2" d="M53.91,237.47c-.21-1.26-9.56-6.42-10.28,3.34.79,4.12,5.14,7.82,5.14,7.82l5.14,3.9a37.55,37.55,0,0,0,6.64-4.88c2.11-2,3.85-2.93,4.21-6.28C63.26,231,54,236.7,53.91,237.47Z"/><path class="cls-2" d="M157.35,266.51c-.22-1.25-9.57-6.42-10.28,3.35.78,4.12,5.14,7.81,5.14,7.81l5.14,3.91A37.27,37.27,0,0,0,164,276.7c2.12-2,3.86-2.93,4.21-6.28C166.69,260,157.42,265.74,157.35,266.51Z"/><path class="cls-2" d="M111.67,272.84c-.21-1.26-9.56-6.42-10.28,3.35.79,4.11,5.14,7.81,5.14,7.81l5.14,3.91a37.89,37.89,0,0,0,6.64-4.89c2.11-2,3.85-2.93,4.21-6.28C121,266.35,111.74,272.07,111.67,272.84Z"/><path class="cls-2" d="M69.8,266.51c-.21-1.25-9.56-6.42-10.28,3.35.79,4.12,5.14,7.81,5.14,7.81l5.14,3.91a37.55,37.55,0,0,0,6.64-4.88c2.11-2,3.85-2.93,4.21-6.28C79.15,260,69.87,265.74,69.8,266.51Z"/><path class="cls-2" d="M167.91,296.56c-.22-1.26-9.57-6.42-10.28,3.35.79,4.11,5.14,7.81,5.14,7.81l5.14,3.91a37.61,37.61,0,0,0,6.63-4.89c2.12-2,3.86-2.93,4.22-6.28C177.26,290.07,168,295.79,167.91,296.56Z"/><path class="cls-2" d="M132.32,303.34c-.21-1.26-9.56-6.42-10.28,3.34.79,4.12,5.14,7.82,5.14,7.82l5.14,3.91a37.89,37.89,0,0,0,6.64-4.89c2.11-2,3.85-2.93,4.21-6.28C141.67,296.85,132.39,302.57,132.32,303.34Z"/><path class="cls-2" d="M93,302.37c-.21-1.25-9.56-6.42-10.27,3.35.78,4.12,5.14,7.81,5.14,7.81L93,317.44a37.55,37.55,0,0,0,6.64-4.88c2.12-2,3.85-2.93,4.21-6.28C102.39,295.88,93.11,301.6,93,302.37Z"/><path class="cls-2" d="M56,297.56c-.22-1.26-9.56-6.42-10.28,3.35.79,4.11,5.14,7.81,5.14,7.81L56,312.63a37.89,37.89,0,0,0,6.64-4.89c2.11-2,3.85-2.93,4.21-6.28C65.33,291.07,56.05,296.79,56,297.56Z"/><path class="cls-3" d="M214.59,212.38a31.88,31.88,0,0,0,9.82-12.1s3.05-7.07,0-19.35a37.4,37.4,0,0,0-7.61-17.86l-6.09-6.7,3-7.81s.67-6.14-.76-10.79a35.36,35.36,0,0,0-5-9.3s-1.14-3.26-5.32-7.82a25.74,25.74,0,0,0-7.62-6s-2.95-1.58-6-2.79-5.62-.56-9.14-.93-4.28-1.77-4.28-1.77a65,65,0,0,0,1.62-8.93,25.88,25.88,0,0,0-1.62-11.54C174.36,85,170,80.1,170,80.1a29.49,29.49,0,0,0-5.33-6c-3.23-2.7-11.13-8.28-17.89-10.79-4.18-2.42-7.8-2.88-9.89-3.72s-5-2.05-5.71-4.46c-.48-9.31,3-12.67,4.18-16a31.69,31.69,0,0,0,.77-9.68l-2.29-9.3A21.69,21.69,0,0,0,127,12.37c-4.47-2.88-12.56-4.83-12.56-4.83s-6.9-1.68-11-2.23-13-2-13-2S94.06,8.93,97,13s9.47,8.46,9.09,13.16-3,6.7-3,6.7L90.81,39.17,77.49,45.12s-6.38,3.25-10,6.88a63.09,63.09,0,0,0-6.76,8.37l-4.57,9.31s-1.9,5.3-1.9,8.56v5.2A46.48,46.48,0,0,0,47,85.68a33.82,33.82,0,0,0-9.13,5.86A72.9,72.9,0,0,0,33,99.07c-1.62,3.07-1.62,5.68-1.91,8.19s1.24,9.95,2.38,12.46,6,6.14,6,6.14l-8.38,6.7s-6,4.84-10.27,8.56-7.14,8.18-9.71,11.81S4.7,168.28,4.7,168.28s-2.19,8.93-2.19,13.4S2.32,193.77,3.93,197s4.48,6.14,8.76,8.74S39.81,217.4,39.81,217.4s17.51,5,22.46,6.32,21.31,3,21.31,3,14.56,1.77,20.55,2.23,18.27,0,18.27,0,12.66.21,19.6,0c5.33.21,17.7-2.21,17.7-2.21L179.12,223l17.51-3.72S206.79,216.84,214.59,212.38Z"/><path class="cls-3" d="M39.43,125.86c38.95,19.18,79.78,31.46,146.29,29,18-.69,35.49,9.16,36.26,19.44"/><path class="cls-3" d="M54.27,83.44c53.52,2.71,55.94,21.13,124.18,26.82"/><path class="cls-3" d="M98,35.48c-9.27,12.28,7.25,17.41,32.61,20.8"/><path class="cls-2" d="M28,269.46c-.21-1.25-6.92-12.63-3.62.37.78,4.12,3.41,12.62,3.41,12.62a39.88,39.88,0,0,0,7.48-5.2c2.11-2,3.85-2.94,4.21-6.28C37.93,260.57,28,268.69,28,269.46Z"/><path class="cls-2" d="M15.18,231.37c-.22-1.26,3.89,14,3.89,14s-.16-1,2.74-3.78c2.12-2,3.86-2.94,4.21-6.28C24.53,224.88,15.25,230.6,15.18,231.37Z"/><path class="cls-2" d="M214.92,234c-.22-1.26-9.57-6.42-10.28,3.34.78,4.12,5.14,7.82,5.14,7.82l1.63,1.87S215,233.27,214.92,234Z"/><path class="cls-2" d="M193.79,266.51c-.21-1.25-9.56-6.42-10.27,3.35.78,4.12,5.13,7.81,5.13,7.81l5.14,3.91a37.55,37.55,0,0,0,6.64-4.88c2.11-2,3.85-2.93,4.21-6.28C203.14,260,193.86,265.74,193.79,266.51Z"/></g></g></svg>