<svg xmlns="http://www.w3.org/2000/svg" xmlns:xlink="http://www.w3.org/1999/xlink" viewBox="0 0 231.27 369.96"><defs><style>.cls-1{stroke:#ffbc00;stroke-width:2px;fill:url(#linear-gradient);}.cls-2{fill:#d9ffe5;stroke:#bdb8ff;}.cls-3,.cls-4{stroke:#397bbf;stroke-width:6px;}.cls-3{fill:url(#linear-gradient-2);}.cls-4{fill:#5ff4ff;}.cls-5,.cls-7{stroke:#910249;}.cls-5{fill:url(#linear-gradient-3);}.cls-6{stroke:#087a15;stroke-width:0.5px;fill:url(#linear-gradient-4);}.cls-7{fill:url(#linear-gradient-5);}</style><linearGradient id="linear-gradient" x1="137.69" y1="235" x2="137.69" y2="368.96" gradientTransform="matrix(-0.95, 0, 0, 1, 247.26, 0)" gradientUnits="userSpaceOnUse"><stop offset="0.3" stop-color="#ffe594"/><stop offset="1" stop-color="#e0b853"/></linearGradient><linearGradient id="linear-gradient-2" x1="19.95" y1="153.88" x2="256.52" y2="153.88" gradientTransform="matrix(-0.95, 0, 0, 1, 247.26, 0)" gradientUnits="userSpaceOnUse"><stop offset="0.2" stop-color="#5ff4ff"/><stop offset="0.89" stop-color="#30f2ac"/></linearGradient><linearGradient id="linear-gradient-3" x1="80.12" y1="50.36" x2="85.54" y2="54.58" gradientTransform="matrix(-0.95, 0, 0, 1, 247.26, 0)" gradientUnits="userSpaceOnUse"><stop offset="0.4" stop-color="#c10c52"/><stop offset="0.88" stop-color="#840f3c"/></linearGradient><linearGradient id="linear-gradient-4" x1="65.93" y1="29.62" x2="88.61" y2="29.62" gradientTransform="matrix(-0.95, 0, 0, 1, 247.26, 0)" gradientUnits="userSpaceOnUse"><stop offset="0.4" stop-color="#08bf26"/><stop offset="0.88" stop-color="#087a15"/></linearGradient><linearGradient id="linear-gradient-5" x1="74.65" y1="53.36" x2="133.83" y2="99.46" xlink:href="#linear-gradient-3"/></defs><title>Asset 2</title><g id="Layer_2" data-name="Layer 2"><g id="Layer_9" data-name="Layer 9"><path class="cls-1" d="M224.45,238.91a32.38,32.38,0,0,1-14.54,10.43c-7.94,3.78-15.54,3-20.14,5.46a404.75,404.75,0,0,1-77.85,8c-20.72-1.69-43.2-3.68-56.76-7.65-6.77-1-30-10.35-30-10.35L7.85,235,39.53,355s12.4,6.27,23.43,8.19S92.53,369,113.27,369s33.11-.8,44.16-3.35,38.22-11.16,38.22-11.16Z"/><path class="cls-2" d="M178.82,272.09c-.21-1.25-9.65-6.41-10.37,3.35.79,4.12,5.19,7.82,5.19,7.82l5.18,3.9a37.64,37.64,0,0,0,6.7-4.88c2.13-2,3.89-2.93,4.25-6.28C188.25,265.61,178.89,271.33,178.82,272.09Z"/><path class="cls-2" d="M136.19,277.44c-.21-1.25-9.65-6.42-10.37,3.35.8,4.12,5.19,7.82,5.19,7.82l5.18,3.9a37.64,37.64,0,0,0,6.7-4.88c2.13-2,3.89-2.93,4.25-6.28C145.63,271,136.26,276.68,136.19,277.44Z"/><path class="cls-2" d="M95.39,278.93c-.22-1.25-9.65-6.42-10.37,3.35.79,4.12,5.18,7.81,5.18,7.81L95.39,294a38,38,0,0,0,6.7-4.88c2.13-2,3.88-2.93,4.24-6.28C104.82,272.44,95.46,278.16,95.39,278.93Z"/><path class="cls-2" d="M54.87,272.09c-.21-1.25-9.65-6.41-10.37,3.35.79,4.12,5.19,7.82,5.19,7.82l5.18,3.9a37.64,37.64,0,0,0,6.7-4.88c2.13-2,3.89-2.93,4.25-6.28C64.3,265.61,54.94,271.33,54.87,272.09Z"/><path class="cls-2" d="M159.24,300.14c-.22-1.25-9.65-6.42-10.37,3.35.79,4.12,5.18,7.81,5.18,7.81l5.19,3.91a37.75,37.75,0,0,0,6.69-4.88c2.14-2,3.89-2.93,4.25-6.28C168.67,293.65,159.31,299.37,159.24,300.14Z"/><path class="cls-2" d="M113.15,306.47c-.22-1.26-9.65-6.42-10.37,3.35.79,4.11,5.19,7.81,5.19,7.81l5.18,3.91a38,38,0,0,0,6.7-4.89c2.13-2,3.89-2.93,4.25-6.28C122.58,300,113.22,305.7,113.15,306.47Z"/><path class="cls-2" d="M70.91,300.14c-.22-1.25-9.65-6.42-10.37,3.35.79,4.12,5.18,7.81,5.18,7.81l5.19,3.91a37.75,37.75,0,0,0,6.69-4.88c2.14-2,3.89-2.93,4.25-6.28C80.34,293.65,71,299.37,70.91,300.14Z"/><path class="cls-2" d="M169.89,328.19c-.21-1.26-9.65-6.42-10.37,3.35.8,4.11,5.19,7.81,5.19,7.81l5.18,3.91a38,38,0,0,0,6.7-4.89c2.13-2,3.89-2.93,4.25-6.28C179.33,321.7,170,327.42,169.89,328.19Z"/><path class="cls-2" d="M132,336c-.22-1.26-9.65-6.42-10.37,3.34.79,4.12,5.18,7.82,5.18,7.82L132,351a38.09,38.09,0,0,0,6.69-4.89c2.14-2,3.89-2.93,4.25-6.28C141.4,329.48,132,335.2,132,336Z"/><path class="cls-2" d="M94.36,334c-.22-1.25-9.65-6.42-10.37,3.35.79,4.12,5.18,7.81,5.18,7.81l5.19,3.91a37.75,37.75,0,0,0,6.69-4.88c2.14-2,3.89-2.93,4.25-6.28C103.79,327.51,94.43,333.23,94.36,334Z"/><path class="cls-2" d="M59,327.19c-.22-1.26-9.65-6.42-10.37,3.35.79,4.11,5.18,7.81,5.18,7.81L59,342.26a38.09,38.09,0,0,0,6.69-4.89c2.14-2,3.89-2.93,4.25-6.28C68.41,320.7,59.05,326.42,59,327.19Z"/><path class="cls-3" d="M217,250a32,32,0,0,0,9.9-12.1s3.08-7.07,0-19.35a37.15,37.15,0,0,0-7.68-17.86l-6.14-6.7,3.07-7.81s.67-6.14-.77-10.79a35.55,35.55,0,0,0-5-9.3s-1.15-3.26-5.38-7.82a25.89,25.89,0,0,0-7.68-6s-3-1.58-6.05-2.79-5.66-.56-9.21-.93-4.32-1.77-4.32-1.77a66,66,0,0,0,1.63-8.93,25.74,25.74,0,0,0-1.63-11.54c-1.35-3.62-5.76-8.55-5.76-8.55a30,30,0,0,0-5.38-6c-3.27-2.7-11.23-8.28-18.05-10.79-4.23-2.42-7.87-2.88-10-3.72s-5-2.05-5.76-4.46c-.48-9.31,3-12.67,4.23-16a31.33,31.33,0,0,0,.77-9.68l-2.31-9.3A21.73,21.73,0,0,0,128.59,50c-4.51-2.88-12.67-4.83-12.67-4.83s-7-1.68-11.14-2.24-13.11-2-13.11-2,3.71,5.58,6.63,9.63,9.55,8.46,9.17,13.16-3,6.7-3,6.7L92.1,76.8l-13.44,6S72.23,86,68.58,89.63A62.87,62.87,0,0,0,61.77,98l-4.61,9.31s-1.92,5.3-1.92,8.55v5.21a47.08,47.08,0,0,0-7.3,2.24,34.29,34.29,0,0,0-9.22,5.86,74.1,74.1,0,0,0-5,7.53c-1.63,3.07-1.63,5.68-1.92,8.19s1.25,10,2.4,12.46,6,6.14,6,6.14l-8.45,6.7s-6,4.84-10.37,8.56-7.2,8.18-9.79,11.81-6.43,15.35-6.43,15.35S3,214.84,3,219.31s-.2,12.09,1.44,15.35,4.51,6.13,8.83,8.74S40.64,255,40.64,255s17.67,5,22.66,6.32,21.51,3,21.51,3,14.69,1.77,20.74,2.23,18.43,0,18.43,0,12.77.21,19.78,0c5.37.21,17.86-2.21,17.86-2.21l19.58-3.72,17.67-3.72S209.12,254.47,217,250Z"/><path class="cls-4" d="M40.26,163.49c39.31,19.18,80.49,31.46,147.61,28.95,18.2-.69,35.8,9.16,36.58,19.44"/><path class="cls-4" d="M55.24,121.07c54,2.71,56.44,21.13,125.29,26.82"/><path class="cls-4" d="M113.12,79.69c-9.36,12.28-3,12.84,22.56,16.22"/><path class="cls-5" d="M175.36,56.54l-12.7-9.16a5.35,5.35,0,0,0,1,4.44,7,7,0,0,0,4.39,3.94C171.1,57,175.36,56.54,175.36,56.54Z"/><path class="cls-6" d="M162.89,53.87,167.65,46l4.62-10.53a92.2,92.2,0,0,0,2.8-10.06l1.84-12.78a4.13,4.13,0,0,1-1.06-3.47c.42-2,1.27-2.22,1.27-2.22a20.6,20.6,0,0,1,.46-4.4A4.16,4.16,0,0,1,180.92.26a4.31,4.31,0,0,1,3.27,2.4c.39,1.21-.52,4.65-.52,4.65s1,.53.78,2.69a4.34,4.34,0,0,1-2.19,3.18s-.66,8.46-1,11.4c-1.25,5.64-3.17,12.5-3.17,12.5l-3.9,9.55-4.35,7.93L167.11,59Z"/><path class="cls-7" d="M175.36,56.54A17.44,17.44,0,0,1,184,64.15c3.16,5.72,4.6,13.95,4.6,13.95s.12,10.53-2.16,14.09-8.17,10.47-11.09,12.74c-8.75,6.84-5.45,4.72-13.34,0a142.33,142.33,0,0,0-15.49-8.25c-4.68-1.71-17.42-4.26-17.42-4.26l-16.42-2.56a26.74,26.74,0,0,1-3.57-14,34.87,34.87,0,0,1,3.45-15.07s5.91-10.47,8.07-12.84,12.1-7.26,12.1-7.26,10.65-1.81,16.13-.83c7.63,1,14.48,6.24,14,8.71s1.1,3.71,2.83,5.38S175.36,56.54,175.36,56.54Z"/></g></g></svg>