<svg xmlns="http://www.w3.org/2000/svg" viewBox="0 0 357.64 337.52"><defs><style>.cls-1{fill:#fff;}</style></defs><title>Asset_10</title><g id="Layer_2" data-name="Layer 2"><g id="Layer_5" data-name="Layer 5"><path d="M.61,6.82C4.94-1.83,14,.21,14,.21l60.5,24.2L86.15,59.15l261.07.56a10.46,10.46,0,0,1,8.14,4.18c3.16,4.33,2.11,7.82,2.11,7.82L308.92,222.88a11.85,11.85,0,0,1-3.42,5.85,9.75,9.75,0,0,1-6.11,2.23H126.52l-11.39,28.75,183.46,0s9.35,1.6,9.35,9.52-8.44,9.93-8.44,9.93H101.92s-5.38,0-8.31-4c-3.41-4.68-1.56-10.28-1.56-10.28s16.13-44,17.43-47a6.81,6.81,0,0,1,5.83-5L55.82,41.57,6.2,22S-2.32,17.71.61,6.82Z"/><circle cx="135.45" cy="302.54" r="34.98"/><circle cx="261.57" cy="302.25" r="34.98"/><polygon class="cls-1" points="94.89 81.75 164.1 81.75 164.1 109.29 103.08 109.29 94.89 81.75"/><rect class="cls-1" x="187.92" y="81.75" width="52.09" height="27.53"/><polygon class="cls-1" points="263.45 81.75 263.45 109.29 322.24 109.29 330.8 81.75 263.45 81.75"/><polygon class="cls-1" points="110.89 130.87 121.31 161.38 164.1 161.38 164.1 130.87 110.89 130.87"/><rect class="cls-1" x="187.92" y="130.87" width="52.09" height="30.51"/><polygon class="cls-1" points="263.45 130.87 263.45 161.38 304.75 161.38 314.06 130.87 263.45 130.87"/><polygon class="cls-1" points="129.5 184.08 137.5 208.64 164.1 208.64 164.1 184.08 129.5 184.08"/><rect class="cls-1" x="187.92" y="184.08" width="52.09" height="24.56"/><polygon class="cls-1" points="263.45 184.08 263.45 208.64 290.99 208.64 298.43 184.08 263.45 184.08"/><circle class="cls-1" cx="135.43" cy="302.25" r="15.21"/><circle class="cls-1" cx="261.57" cy="302.25" r="15.21"/></g></g></svg>