<svg xmlns="http://www.w3.org/2000/svg" xmlns:xlink="http://www.w3.org/1999/xlink" viewBox="0 0 229.26 336"><defs><style>.cls-1{stroke:#ffe299;fill:url(#linear-gradient);}.cls-1,.cls-2{stroke-width:2px;}.cls-2{fill:#dcf8ff;stroke:#8f8fff;}.cls-3,.cls-4,.cls-5,.cls-6{stroke-width:6px;}.cls-3{fill:url(#linear-gradient-2);stroke:url(#linear-gradient-3);}.cls-4,.cls-5,.cls-6{fill:none;}.cls-4{stroke:url(#linear-gradient-4);}.cls-5{stroke:url(#linear-gradient-5);}.cls-6{stroke:url(#linear-gradient-6);}</style><linearGradient id="linear-gradient" x1="7.81" y1="268.02" x2="222.48" y2="268.02" gradientUnits="userSpaceOnUse"><stop offset="0" stop-color="#fff5ca"/><stop offset="1" stop-color="#ffe594"/></linearGradient><linearGradient id="linear-gradient-2" x1="3" y1="116.92" x2="226.26" y2="116.92" gradientUnits="userSpaceOnUse"><stop offset="0.38" stop-color="#d7d7ff" stop-opacity="0.5"/><stop offset="1" stop-color="#b3b3ff"/></linearGradient><linearGradient id="linear-gradient-3" y1="116.4" x2="229.26" y2="116.4" gradientUnits="userSpaceOnUse"><stop offset="0.26" stop-color="#d7d7ff" stop-opacity="0.7"/><stop offset="0.52" stop-color="#c7c7ff" stop-opacity="0.83"/><stop offset="0.89" stop-color="#b3b3ff"/></linearGradient><linearGradient id="linear-gradient-4" x1="38.6" y1="149.49" x2="225.47" y2="149.49" xlink:href="#linear-gradient-3"/><linearGradient id="linear-gradient-5" x1="54.62" y1="97.52" x2="179.2" y2="97.52" xlink:href="#linear-gradient-3"/><linearGradient id="linear-gradient-6" x1="92.84" y1="47.13" x2="131.45" y2="47.13" gradientUnits="userSpaceOnUse"><stop offset="0.26" stop-color="#d7d7ff" stop-opacity="0.9"/><stop offset="0.48" stop-color="#cacaff" stop-opacity="0.83"/><stop offset="0.89" stop-color="#b3b3ff" stop-opacity="0.7"/></linearGradient></defs><title>Asset 4</title><g id="Layer_2" data-name="Layer 2"><g id="Layer_10" data-name="Layer 10"><path class="cls-1" d="M222.48,205a32.11,32.11,0,0,1-14.41,10.43c-7.87,3.78-15.4,3.05-20,5.47a398.61,398.61,0,0,1-77.15,8c-20.54-1.69-42.81-3.68-56.25-7.65C48,220.18,25,210.81,25,210.81L7.81,201l31.4,120s12.29,6.27,23.22,8.19S91.74,335,112.29,335s32.81-.8,43.77-3.35,37.87-11.16,37.87-11.16Z"/><path class="cls-2" d="M177.26,238.14c-.22-1.26-9.57-6.42-10.28,3.34.79,4.12,5.14,7.82,5.14,7.82l5.14,3.91a37.61,37.61,0,0,0,6.63-4.89c2.12-2,3.86-2.93,4.21-6.28C186.61,231.65,177.33,237.37,177.26,238.14Z"/><path class="cls-2" d="M135,243.48c-.22-1.25-9.57-6.41-10.28,3.35.79,4.12,5.14,7.82,5.14,7.82l5.14,3.9a37.27,37.27,0,0,0,6.63-4.88c2.12-2,3.86-2.93,4.22-6.28C144.36,237,135.08,242.72,135,243.48Z"/><path class="cls-2" d="M94.57,245c-.22-1.25-9.57-6.42-10.28,3.35.78,4.12,5.14,7.82,5.14,7.82l5.14,3.9a37.27,37.27,0,0,0,6.63-4.88c2.12-2,3.86-2.93,4.21-6.28C103.92,238.48,94.64,244.21,94.57,245Z"/><path class="cls-2" d="M54.41,238.14c-.21-1.26-9.56-6.42-10.28,3.34.79,4.12,5.14,7.82,5.14,7.82l5.14,3.91a37.89,37.89,0,0,0,6.64-4.89c2.11-2,3.85-2.93,4.21-6.28C63.76,231.65,54.48,237.37,54.41,238.14Z"/><path class="cls-2" d="M157.85,266.18c-.22-1.25-9.57-6.42-10.28,3.35.78,4.12,5.14,7.81,5.14,7.81l5.14,3.91a37.27,37.27,0,0,0,6.63-4.88c2.12-2,3.86-2.93,4.21-6.28C167.19,259.69,157.92,265.41,157.85,266.18Z"/><path class="cls-2" d="M112.17,272.51c-.21-1.26-9.56-6.42-10.28,3.35.79,4.11,5.14,7.81,5.14,7.81l5.14,3.91a37.89,37.89,0,0,0,6.64-4.89c2.11-2,3.85-2.93,4.21-6.28C121.52,266,112.24,271.74,112.17,272.51Z"/><path class="cls-2" d="M70.3,266.18c-.21-1.25-9.56-6.42-10.28,3.35.79,4.12,5.14,7.81,5.14,7.81l5.14,3.91a37.55,37.55,0,0,0,6.64-4.88c2.11-2,3.85-2.93,4.21-6.28C79.65,259.69,70.37,265.41,70.3,266.18Z"/><path class="cls-2" d="M168.41,294.23c-.22-1.26-9.57-6.42-10.28,3.35.79,4.11,5.14,7.81,5.14,7.81l5.14,3.91a37.61,37.61,0,0,0,6.63-4.89c2.12-2,3.86-2.93,4.22-6.27C177.76,287.74,168.48,293.46,168.41,294.23Z"/><path class="cls-2" d="M130.82,302c-.21-1.26-9.56-6.42-10.28,3.35.79,4.11,5.14,7.81,5.14,7.81l5.14,3.91a37.89,37.89,0,0,0,6.64-4.89c2.11-2,3.85-2.93,4.21-6.28C140.17,295.52,130.89,301.24,130.82,302Z"/><path class="cls-2" d="M93.54,300c-.21-1.25-9.56-6.42-10.27,3.35.78,4.12,5.14,7.81,5.14,7.81l5.13,3.91a37.55,37.55,0,0,0,6.64-4.88c2.12-2,3.85-2.93,4.21-6.28C102.89,293.55,93.61,299.27,93.54,300Z"/><path class="cls-2" d="M58.48,293.23c-.22-1.26-9.56-6.42-10.28,3.35.79,4.11,5.14,7.81,5.14,7.81l5.14,3.91a37.89,37.89,0,0,0,6.64-4.89c2.11-2,3.85-2.93,4.21-6.27C67.83,286.74,58.55,292.46,58.48,293.23Z"/><path class="cls-3" d="M215.09,213.05a31.88,31.88,0,0,0,9.82-12.1s3.05-7.07,0-19.35a37.4,37.4,0,0,0-7.61-17.86l-6.09-6.7,3-7.81s.67-6.14-.76-10.79a35.36,35.36,0,0,0-5-9.3s-1.14-3.26-5.32-7.82a25.74,25.74,0,0,0-7.62-6s-2.95-1.58-6-2.79-5.62-.56-9.14-.93-4.28-1.77-4.28-1.77a64.7,64.7,0,0,0,1.62-8.93,25.88,25.88,0,0,0-1.62-11.54c-1.33-3.62-5.71-8.55-5.71-8.55a29.49,29.49,0,0,0-5.33-6C161.92,72.11,154,66.53,147.26,64c-4.18-2.42-7.8-2.88-9.89-3.72s-5-2-5.71-4.46c-.48-9.31,3-12.67,4.18-16a31.69,31.69,0,0,0,.77-9.68l-2.29-9.3a21.62,21.62,0,0,0-6.85-7.81c-4.47-2.89-12.56-4.84-12.56-4.84S108,6.53,103.87,6s-13-2-13-2,3.68,5.58,6.57,9.63,9.47,8.46,9.09,13.16-3,6.7-3,6.7L91.31,39.84,78,45.79s-6.38,3.26-10,6.88a62.85,62.85,0,0,0-6.76,8.38l-4.57,9.3s-1.9,5.3-1.9,8.56v5.2a46.48,46.48,0,0,0-7.23,2.24,33.82,33.82,0,0,0-9.13,5.86,72.9,72.9,0,0,0-4.95,7.53c-1.62,3.07-1.62,5.68-1.91,8.19s1.24,9.95,2.38,12.46,6,6.14,6,6.14l-8.38,6.7s-6,4.84-10.27,8.56S14.14,150,11.57,153.6,5.2,169,5.2,169,3,177.88,3,182.35s-.19,12.09,1.42,15.35,4.48,6.14,8.76,8.74,27.12,11.63,27.12,11.63,17.51,5,22.46,6.32,21.31,3,21.31,3,14.56,1.77,20.55,2.23,18.27,0,18.27,0,12.66.21,19.6,0c5.33.21,17.7-2.21,17.7-2.21l19.42-3.72,17.51-3.72S207.29,217.52,215.09,213.05Z"/><path class="cls-4" d="M39.93,126.53c38.95,19.18,79.78,31.46,146.29,28.95,18-.69,35.49,9.17,36.26,19.44"/><path class="cls-5" d="M54.77,84.11c53.52,2.72,55.94,21.13,124.18,26.82"/><path class="cls-6" d="M98.45,36.16C89.18,48.43,105.7,53.56,131.06,57"/><path class="cls-2" d="M27.45,263.13c-.21-1.25-6.92-12.63-3.62.37.78,4.12,3.41,12.62,3.41,12.62a39.88,39.88,0,0,0,7.48-5.2c2.11-2,3.85-2.93,4.21-6.28C37.43,254.24,27.52,262.36,27.45,263.13Z"/><path class="cls-2" d="M15.68,232c-.22-1.26,3.89,14,3.89,14s-.16-1,2.74-3.78c2.12-2,3.86-2.93,4.21-6.28C25,225.55,15.75,231.27,15.68,232Z"/><path class="cls-2" d="M30.62,289.67c-.22-1.26,3.48,12.14,4.21,14.64a30.8,30.8,0,0,0,2.26-9.14C37.09,283.67,30.69,288.9,30.62,289.67Z"/><path class="cls-2" d="M215.42,234.71c-.22-1.26-9.57-6.42-10.28,3.35.78,4.11,5.14,7.81,5.14,7.81l1.63,1.87S215.49,233.94,215.42,234.71Z"/><path class="cls-2" d="M194.29,266.18c-.21-1.25-9.56-6.42-10.27,3.35.78,4.12,5.13,7.81,5.13,7.81l5.14,3.91a37.55,37.55,0,0,0,6.64-4.88c2.11-2,3.85-2.93,4.21-6.28C203.64,259.69,194.36,265.41,194.29,266.18Z"/><path class="cls-2" d="M200.76,294.79c-.29-1.72-6.14-5.48-6.71,3.81a23.54,23.54,0,0,0,3.36,7.82S200.84,294,200.76,294.79Z"/></g></g></svg>