<svg xmlns="http://www.w3.org/2000/svg" xmlns:xlink="http://www.w3.org/1999/xlink" viewBox="0 0 224.26 369.96"><defs><style>.cls-1{stroke:#ffbc00;stroke-width:2px;fill:url(#linear-gradient);}.cls-2{fill:#d9ffe5;stroke:#bdb8ff;}.cls-3,.cls-4{stroke:#397bbf;stroke-width:6px;}.cls-3{fill:url(#linear-gradient-2);}.cls-4{fill:#5ff4ff;}.cls-5,.cls-7{stroke:#910249;}.cls-5{fill:url(#linear-gradient-3);}.cls-6{stroke:#087a15;stroke-width:0.5px;fill:url(#linear-gradient-4);}.cls-7{fill:url(#linear-gradient-5);}</style><linearGradient id="linear-gradient" x1="111.63" y1="235" x2="111.63" y2="368.96" gradientUnits="userSpaceOnUse"><stop offset="0.3" stop-color="#ffe594"/><stop offset="1" stop-color="#e0b853"/></linearGradient><linearGradient id="linear-gradient-2" x1="3" y1="153.88" x2="221.26" y2="153.88" gradientUnits="userSpaceOnUse"><stop offset="0.2" stop-color="#5ff4ff"/><stop offset="0.89" stop-color="#30f2ac"/></linearGradient><linearGradient id="linear-gradient-3" x1="58.69" y1="50.62" x2="63.57" y2="54.42" gradientUnits="userSpaceOnUse"><stop offset="0.4" stop-color="#c10c52"/><stop offset="0.88" stop-color="#840f3c"/></linearGradient><linearGradient id="linear-gradient-4" x1="45.42" y1="29.62" x2="66.35" y2="29.62" gradientUnits="userSpaceOnUse"><stop offset="0.4" stop-color="#08bf26"/><stop offset="0.88" stop-color="#087a15"/></linearGradient><linearGradient id="linear-gradient-5" x1="52.92" y1="54.73" x2="108.57" y2="98.07" xlink:href="#linear-gradient-3"/></defs><title>Asset 1</title><g id="Layer_2" data-name="Layer 2"><g id="Layer_2-2" data-name="Layer 2"><path class="cls-1" d="M6.7,238.91a31.51,31.51,0,0,0,14.08,10.43c7.7,3.78,15.06,3,19.52,5.46a380.46,380.46,0,0,0,75.43,8c20.08-1.69,41.85-3.68,55-7.65,6.56-1,29.08-10.35,29.08-10.35L216.56,235l-30.7,120s-12,6.27-22.7,8.19S134.51,369,114.42,369s-32.08-.8-42.79-3.35-37-11.16-37-11.16Z"/><path class="cls-2" d="M50.91,272.09c.21-1.25,9.35-6.41,10.05,3.35-.77,4.12-5,7.82-5,7.82l-5,3.9a36.56,36.56,0,0,1-6.49-4.88c-2.07-2-3.77-2.93-4.12-6.28C41.77,265.61,50.84,271.33,50.91,272.09Z"/><path class="cls-2" d="M92.21,277.44c.21-1.25,9.35-6.42,10.05,3.35-.77,4.12-5,7.82-5,7.82l-5,3.9a36.56,36.56,0,0,1-6.49-4.88c-2.07-2-3.76-2.93-4.11-6.28C83.07,271,92.14,276.68,92.21,277.44Z"/><path class="cls-2" d="M131.75,278.93c.21-1.25,9.34-6.42,10,3.35-.77,4.12-5,7.81-5,7.81l-5,3.91a36.56,36.56,0,0,1-6.49-4.88c-2.07-2-3.77-2.93-4.12-6.28C122.61,272.44,131.68,278.16,131.75,278.93Z"/><path class="cls-2" d="M171,272.09c.21-1.25,9.35-6.41,10.05,3.35-.77,4.12-5,7.82-5,7.82l-5,3.9a36.56,36.56,0,0,1-6.49-4.88c-2.06-2-3.76-2.93-4.11-6.28C161.86,265.61,170.93,271.33,171,272.09Z"/><path class="cls-2" d="M69.89,300.14c.2-1.25,9.34-6.42,10,3.35-.77,4.12-5,7.81-5,7.81l-5,3.91a36.56,36.56,0,0,1-6.49-4.88c-2.07-2-3.77-2.93-4.12-6.28C60.75,293.65,69.82,299.37,69.89,300.14Z"/><path class="cls-2" d="M114.54,306.47c.21-1.26,9.35-6.42,10,3.35-.76,4.11-5,7.81-5,7.81l-5,3.91a36.89,36.89,0,0,1-6.49-4.89c-2.07-2-3.77-2.93-4.12-6.28C105.4,300,114.47,305.7,114.54,306.47Z"/><path class="cls-2" d="M155.47,300.14c.21-1.25,9.35-6.42,10,3.35-.76,4.12-5,7.81-5,7.81l-5,3.91a36.56,36.56,0,0,1-6.49-4.88c-2.07-2-3.77-2.93-4.12-6.28C146.33,293.65,155.4,299.37,155.47,300.14Z"/><path class="cls-2" d="M59.56,328.19c.21-1.26,9.35-6.42,10,3.35-.77,4.11-5,7.81-5,7.81l-5,3.91a36.89,36.89,0,0,1-6.49-4.89c-2.07-2-3.77-2.93-4.11-6.28C50.42,321.7,59.49,327.42,59.56,328.19Z"/><path class="cls-2" d="M96.3,336c.21-1.26,9.35-6.42,10,3.34-.77,4.12-5,7.82-5,7.82l-5,3.91a37,37,0,0,1-6.48-4.89c-2.07-2-3.77-2.93-4.12-6.28C87.16,329.48,96.23,335.2,96.3,336Z"/><path class="cls-2" d="M132.75,334c.21-1.25,9.34-6.42,10,3.35-.77,4.12-5,7.81-5,7.81l-5,3.91a36.56,36.56,0,0,1-6.49-4.88c-2.07-2-3.77-2.93-4.12-6.28C123.61,327.51,132.68,333.23,132.75,334Z"/><path class="cls-2" d="M167,327.19c.21-1.26,9.35-6.42,10,3.35-.77,4.11-5,7.81-5,7.81l-5,3.91a37,37,0,0,1-6.48-4.89c-2.07-2-3.77-2.93-4.12-6.28C157.89,320.7,167,326.42,167,327.19Z"/></g><g id="Layer_3" data-name="Layer 3"><path class="cls-3" d="M13.92,250a31.88,31.88,0,0,1-9.6-12.1s-3-7.07,0-19.35a37.74,37.74,0,0,1,7.44-17.86l6-6.7-3-7.81s-.65-6.14.75-10.79a35.77,35.77,0,0,1,4.83-9.3s1.12-3.26,5.21-7.82,7.44-6,7.44-6,2.89-1.58,5.86-2.79,5.49-.56,8.93-.93S52,146.75,52,146.75a66.41,66.41,0,0,1-1.58-8.93A26.45,26.45,0,0,1,52,126.28c1.3-3.62,5.58-8.55,5.58-8.55a29.58,29.58,0,0,1,5.21-6c3.16-2.7,10.89-8.28,17.49-10.79,4.09-2.42,7.63-2.88,9.67-3.72s4.84-2.05,5.59-4.46c.46-9.31-2.95-12.67-4.1-16a32.24,32.24,0,0,1-.74-9.68l2.23-9.3A21.62,21.62,0,0,1,99.58,50c4.37-2.88,12.28-4.83,12.28-4.83s6.74-1.68,10.79-2.24,12.7-2,12.7-2-3.6,5.58-6.42,9.63-9.26,8.46-8.89,13.16,2.89,6.7,2.89,6.7l12,6.33,13,6s6.23,3.25,9.77,6.88a63.3,63.3,0,0,1,6.6,8.37l4.47,9.31s1.86,5.3,1.86,8.55v5.21a44.82,44.82,0,0,1,7.07,2.24,33,33,0,0,1,8.93,5.86,76,76,0,0,1,4.84,7.53c1.58,3.07,1.58,5.68,1.86,8.19s-1.21,10-2.33,12.46-5.86,6.14-5.86,6.14l8.19,6.7s5.86,4.84,10,8.56,7,8.18,9.49,11.81,6.23,15.35,6.23,15.35,2.14,8.93,2.14,13.4.19,12.09-1.39,15.35-4.37,6.13-8.56,8.74S184.79,255,184.79,255s-17.12,5-22,6.32-20.83,3-20.83,3-14.24,1.77-20.1,2.23-17.86,0-17.86,0-12.37.21-19.16,0c-5.21.21-17.3-2.21-17.3-2.21l-19-3.72-17.11-3.72S21.55,254.47,13.92,250Z"/><path class="cls-4" d="M185.16,163.49c-38.08,19.18-78,31.46-143,28.95-17.64-.69-34.7,9.16-35.45,19.44"/><path class="cls-4" d="M170.65,121.07C118.33,123.78,116,142.2,49.26,147.89"/><path class="cls-4" d="M114.56,79.69c9.07,12.28,2.93,12.84-21.85,16.22"/></g><g id="Layer_8" data-name="Layer 8"><path class="cls-5" d="M54.26,56.54l12.31-9.16a5.49,5.49,0,0,1-1,4.44c-.7,1.57-2.3,3.52-4.26,3.94C58.39,57,54.26,56.54,54.26,56.54Z"/><path class="cls-6" d="M66.35,53.87,61.74,46,57.26,35.46A93.08,93.08,0,0,1,54.55,25.4L52.76,12.62a4.17,4.17,0,0,0,1-3.47c-.4-2-1.22-2.22-1.22-2.22a21.1,21.1,0,0,0-.45-4.4C51.7,1.46,50,.14,48.87.26a4.21,4.21,0,0,0-3.16,2.4c-.38,1.21.5,4.65.5,4.65s-1,.53-.76,2.69a4.34,4.34,0,0,0,2.13,3.18s.63,8.46,1,11.4c1.21,5.64,3.07,12.5,3.07,12.5l3.78,9.55,4.21,7.93L62.26,59Z"/></g><g id="Layer_7" data-name="Layer 7"><path class="cls-7" d="M54.26,56.54a17,17,0,0,0-8.37,7.61c-3.07,5.72-4.47,13.95-4.47,13.95s-.11,10.53,2.09,14.09,7.92,10.47,10.75,12.74c8.48,6.84,5.28,4.72,12.93,0a136.6,136.6,0,0,1,15-8.25c4.53-1.71,16.88-4.26,16.88-4.26L115,89.83s3.46-5.31,3.46-14A35.78,35.78,0,0,0,115.1,60.8S109.37,50.33,107.28,48,95.56,40.7,95.56,40.7s-10.33-1.81-15.63-.83c-7.39,1-14,6.24-13.58,8.71S65.28,52.29,63.61,54,54.26,56.54,54.26,56.54Z"/></g></g></svg>